<mxfile host="65bd71144e">
    <diagram id="VmgVUOuZsMyVfI8RfHsE" name="第 1 页">
        <mxGraphModel dx="1029" dy="790" grid="1" gridSize="10" guides="1" tooltips="1" connect="1" arrows="1" fold="1" page="1" pageScale="1" pageWidth="2339" pageHeight="3300" math="0" shadow="0">
            <root>
                <mxCell id="0"/>
                <mxCell id="1" parent="0"/>
                <mxCell id="5" value="" style="rounded=0;whiteSpace=wrap;html=1;" vertex="1" parent="1">
                    <mxGeometry x="960" y="200" width="420" height="500" as="geometry"/>
                </mxCell>
                <mxCell id="4" value="" style="rounded=0;whiteSpace=wrap;html=1;" vertex="1" parent="1">
                    <mxGeometry x="440" y="200" width="420" height="500" as="geometry"/>
                </mxCell>
                <mxCell id="6" value="堆区" style="text;html=1;strokeColor=none;fillColor=none;align=center;verticalAlign=middle;whiteSpace=wrap;rounded=0;strokeWidth=1;fontSize=17;" vertex="1" parent="1">
                    <mxGeometry x="590" y="210" width="100" height="40" as="geometry"/>
                </mxCell>
                <mxCell id="7" value="堆区" style="text;html=1;strokeColor=none;fillColor=none;align=center;verticalAlign=middle;whiteSpace=wrap;rounded=0;strokeWidth=1;fontSize=17;" vertex="1" parent="1">
                    <mxGeometry x="1110" y="220" width="100" height="40" as="geometry"/>
                </mxCell>
                <mxCell id="15" value="" style="rounded=0;whiteSpace=wrap;html=1;fontSize=17;strokeWidth=1;" vertex="1" parent="1">
                    <mxGeometry x="475" y="280" width="325" height="300" as="geometry"/>
                </mxCell>
                <mxCell id="17" value="对象" style="text;html=1;strokeColor=none;fillColor=none;align=center;verticalAlign=middle;whiteSpace=wrap;rounded=0;strokeWidth=1;fontSize=17;" vertex="1" parent="1">
                    <mxGeometry x="590" y="280" width="100" height="40" as="geometry"/>
                </mxCell>
                <mxCell id="25" style="edgeStyle=none;html=1;exitX=1;exitY=0.5;exitDx=0;exitDy=0;entryX=0;entryY=0.5;entryDx=0;entryDy=0;fontSize=17;" edge="1" parent="1" source="18" target="24">
                    <mxGeometry relative="1" as="geometry"/>
                </mxCell>
                <mxCell id="18" value="Mark Word" style="rounded=0;whiteSpace=wrap;html=1;fontSize=17;strokeWidth=1;labelBackgroundColor=none;" vertex="1" parent="1">
                    <mxGeometry x="475" y="330" width="325" height="40" as="geometry"/>
                </mxCell>
                <mxCell id="20" value="Class Pointer" style="rounded=0;whiteSpace=wrap;html=1;fontSize=17;strokeWidth=1;labelBackgroundColor=none;" vertex="1" parent="1">
                    <mxGeometry x="475" y="370" width="325" height="40" as="geometry"/>
                </mxCell>
                <mxCell id="21" value="Array Length（可选）" style="rounded=0;whiteSpace=wrap;html=1;fontSize=17;strokeWidth=1;labelBackgroundColor=none;" vertex="1" parent="1">
                    <mxGeometry x="475" y="410" width="325" height="40" as="geometry"/>
                </mxCell>
                <mxCell id="22" value="对象体" style="rounded=0;whiteSpace=wrap;html=1;fontSize=17;strokeWidth=1;" vertex="1" parent="1">
                    <mxGeometry x="475" y="450" width="325" height="90" as="geometry"/>
                </mxCell>
                <mxCell id="23" value="属性填充" style="rounded=0;whiteSpace=wrap;html=1;fontSize=17;strokeWidth=1;" vertex="1" parent="1">
                    <mxGeometry x="475" y="540" width="325" height="40" as="geometry"/>
                </mxCell>
                <mxCell id="24" value="类的class对象" style="rounded=0;whiteSpace=wrap;html=1;fontSize=17;strokeWidth=1;" vertex="1" parent="1">
                    <mxGeometry x="1080" y="310" width="120" height="60" as="geometry"/>
                </mxCell>
                <mxCell id="26" value="" style="shape=curlyBracket;whiteSpace=wrap;html=1;rounded=1;fontSize=17;strokeWidth=1;" vertex="1" parent="1">
                    <mxGeometry x="450" y="330" width="20" height="120" as="geometry"/>
                </mxCell>
                <mxCell id="27" value="对象头" style="text;html=1;strokeColor=none;fillColor=none;align=center;verticalAlign=middle;whiteSpace=wrap;rounded=0;fontSize=17;" vertex="1" parent="1">
                    <mxGeometry x="380" y="370" width="60" height="30" as="geometry"/>
                </mxCell>
            </root>
        </mxGraphModel>
    </diagram>
</mxfile>